<svg version="1.1" xmlns="http://www.w3.org/2000/svg" x="0" y="0" viewBox="0 0 64 64">
	<style>
	  .st0{fill:#1ed760}.st1{fill:#fff}
	</style>
	<circle class="st0" cx="32" cy="32" r="32"/>
	<path class="st1" d="m15.1 43.4 26.7 2.8c1.5.2 2.8-.9 2.9-2.4L46.2 29c.2-1.5-.9-2.8-2.4-2.9l-26.7-2.8c-1.5-.2-2.8.9-2.9 2.4l-1.5 14.8c-.1 1.5.9 2.8 2.4 2.9z"/>
	<path class="st0" d="m23.8 33.1 24.7 2.6a2 2 0 0 0 2.1-1.7l.8-8a2 2 0 0 0-1.7-2.1L25 21.3c-1-.1-1.9.7-2 1.7l-.8 8c-.2 1.1.6 2 1.6 2.1z"/>
	<path d="m27.2 30.1 20.3 2.1c.9.1 1.6-.5 1.7-1.4l.7-6.6c.1-.9-.5-1.6-1.4-1.7l-20.3-2.1c-.9-.1-1.6.5-1.7 1.4l-.7 6.6c-.1.8.5 1.6 1.4 1.7z" opacity=".6" fill="#fff"/>
	<path class="st0" d="m33.2 25.8 16.6 1.7c.7.1 1.4-.4 1.4-1.2l.6-5.5c.1-.7-.4-1.4-1.2-1.4L34 17.8c-.7-.1-1.4.4-1.4 1.2l-.6 5.4c-.1.7.4 1.3 1.2 1.4z"/>
	<path class="st1" d="m36.3 23.3 14.3 1.5a1 1 0 0 0 1.2-1l.5-4.8a1 1 0 0 0-1-1.2L37 16.2a1 1 0 0 0-1.2 1l-.5 4.8c-.1.7.3 1.3 1 1.3z"/>
  </svg>
  