<?xml version="1.0" encoding="utf-8"?>
<!-- Generator: Adobe Illustrator 26.3.1, SVG Export Plug-In . SVG Version: 6.00 Build 0)  -->
<svg version="1.1" id="Layer_1" xmlns="http://www.w3.org/2000/svg" xmlns:xlink="http://www.w3.org/1999/xlink" x="0px" y="0px"
	 viewBox="0 0 64 64" style="enable-background:new 0 0 64 64;" xml:space="preserve">
<style type="text/css">
	.st0{fill:#1ED760;}
	.st1{fill:#FFFFFF;}
	.st2{opacity:0.6;fill:#FFFFFF;}
</style>
<circle class="st0" cx="32" cy="32" r="32"/>
<path class="st1" d="M15.1,43.4l26.7,2.8c1.5,0.2,2.8-0.9,2.9-2.4L46.2,29c0.2-1.5-0.9-2.8-2.4-2.9l-26.7-2.8
	c-1.5-0.2-2.8,0.9-2.9,2.4l-1.5,14.8C12.6,42,13.6,43.3,15.1,43.4z"/>
<path class="st0" d="M23.8,33.1l24.7,2.6c1.1,0.1,2-0.7,2.1-1.7l0.8-8c0.1-1.1-0.7-2-1.7-2.1l-24.7-2.6C24,21.2,23.1,22,23,23
	l-0.8,8C22,32.1,22.8,33,23.8,33.1z"/>
<path class="st2" d="M27.2,30.1l20.3,2.1c0.9,0.1,1.6-0.5,1.7-1.4l0.7-6.6c0.1-0.9-0.5-1.6-1.4-1.7l-20.3-2.1
	c-0.9-0.1-1.6,0.5-1.7,1.4l-0.7,6.6C25.7,29.2,26.3,30,27.2,30.1z"/>
<path class="st0" d="M33.2,25.8l16.6,1.7c0.7,0.1,1.4-0.4,1.4-1.2l0.6-5.5c0.1-0.7-0.4-1.4-1.2-1.4L34,17.8
	c-0.7-0.1-1.4,0.4-1.4,1.2L32,24.4C31.9,25.1,32.4,25.7,33.2,25.8z"/>
<path class="st1" d="M36.3,23.3l14.3,1.5c0.6,0.1,1.2-0.4,1.2-1l0.5-4.8c0.1-0.6-0.4-1.2-1-1.2L37,16.2c-0.6-0.1-1.2,0.4-1.2,1
	l-0.5,4.8C35.2,22.7,35.6,23.3,36.3,23.3z"/>
</svg>
